<svg width="563" height="554" viewBox="0 0 563 554" fill="none" xmlns="http://www.w3.org/2000/svg">
    <g clip-path="url(#clip0_752_758)">
        <path fill-rule="evenodd" clip-rule="evenodd" d="M265.114 0.949219H99.212V302.465C110.431 278.735 126.593 257.689 146.604 240.733V48.4376H265.099C296.521 48.4376 326.67 60.947 348.886 83.209C371.102 105.471 383.594 135.663 383.594 167.144C383.594 198.625 371.117 228.816 348.886 251.078C326.67 273.34 296.521 285.85 265.099 285.85C242.927 286.605 221.644 294.683 204.519 308.793C187.395 322.918 175.406 342.305 170.418 363.959C165.416 385.599 167.695 408.305 176.886 428.522C186.078 448.739 201.678 465.354 221.259 475.788V386.755C221.052 374.082 225.359 361.766 233.381 351.983C241.418 342.201 252.651 335.591 265.099 333.338C273.639 333.338 282.12 332.671 290.453 331.381L401.029 552.949H466.537L346.311 312.054C359.424 304.688 371.575 295.498 382.395 284.649C413.506 253.479 430.986 211.208 430.986 167.129C430.986 123.049 413.506 80.7782 382.395 49.6085C351.298 18.4535 309.101 0.949219 265.114 0.949219ZM164.395 66.2383H265.114C291.829 66.2383 317.449 76.8653 336.335 95.7925C355.221 114.72 365.833 140.376 365.833 167.144C365.833 193.911 355.221 219.567 336.335 238.495C317.449 257.422 291.829 268.049 265.114 268.049C245.621 268.049 226.439 272.866 209.256 282.07C192.072 291.274 177.419 304.584 166.585 320.814C155.766 337.043 149.091 355.704 147.181 375.135C145.272 394.566 148.173 414.16 155.632 432.198C163.092 450.236 174.873 466.154 189.941 478.53C205.008 490.921 222.887 499.384 241.995 503.193C261.103 507.002 280.862 506.024 299.511 500.362C318.16 494.7 335.121 484.503 348.901 470.704L370.095 513.168C349.685 530.613 325.338 542.841 299.17 548.799C272.988 554.757 245.769 554.253 219.838 547.347C193.892 540.44 170.019 527.338 150.245 509.151C130.471 490.965 115.404 468.244 106.316 442.943C97.2435 417.643 94.4166 390.505 98.1168 363.87C101.802 337.236 111.896 311.906 127.511 290.029C143.126 268.153 163.803 250.411 187.78 238.317C211.742 226.208 238.295 220.116 265.128 220.561C279.278 220.561 292.835 214.928 302.826 204.909C312.816 194.89 318.441 181.298 318.441 167.129C318.441 152.959 312.816 139.368 302.826 129.349C292.821 119.329 279.263 113.697 265.128 113.697H211.801V208.659C195.136 213.12 179.18 219.923 164.409 228.846V66.2383H164.395ZM422.712 437.8L364.649 321.466C377.777 312.751 389.721 302.376 400.2 290.607C415.119 311.698 424.932 335.991 428.84 361.543C432.747 387.096 430.645 413.211 422.712 437.815V437.8Z" fill="#EBC284"/>
    </g>
    <defs>
        <clipPath id="clip0_752_758">
            <rect width="561.987" height="552.43" fill="white" transform="translate(0.537109 0.949219)"/>
        </clipPath>
    </defs>
</svg>